<svg xmlns="http://www.w3.org/2000/svg" viewBox="0 0 24 24" preserveAspectRatio="xMidYMid meet">
  <title>端侧 AI（相机 + 星）</title>
  <g fill="#000000">  <path d="M9.4 3.6c-.5 0-.9.3-1.1.7l-.8 1.7H4.9c-1.6 0-2.9 1.3-2.9 2.9v8.2c0 1.6 1.3 2.9 2.9 2.9h14.2c1.6 0 2.9-1.3 2.9-2.9V8.9c0-1.6-1.3-2.9-2.9-2.9h-2.6l-.8-1.7c-.2-.4-.6-.7-1.1-.7H9.4zm2.6 5.1c2.6 0 4.7 2.1 4.7 4.7s-2.1 4.7-4.7 4.7-4.7-2.1-4.7-4.7 2.1-4.7 4.7-4.7zm0 2.1c-1.4 0-2.6 1.2-2.6 2.6s1.2 2.6 2.6 2.6 2.6-1.2 2.6-2.6-1.2-2.6-2.6-2.6z"/>
  <path d="M19.4 2.1l.7 1.8 1.8.7-1.8.7-.7 1.8-.7-1.8-1.8-.7 1.8-.7z"/></g>
</svg>
